<svg xmlns="http://www.w3.org/2000/svg" version="1.1" viewBox="-5.0 -10.0 110.0 135.0">
 <path d="m16.027 66.574c1.918-2.4648 3.5625-5.0703 4.793-7.5352 0.27344-0.82031 4.2461-0.54687 4.3828-1.3711-0.54688-0.41016-1.2344-0.13672-2.0547 0.27344 0.54687-0.95703 1.3711-1.5078 2.3281-1.918-0.54687-0.13672-1.0977-0.13672-1.5078-0.27344 0.27344-0.27344 0.68359-0.54688 1.0977-0.82031-0.82031-0.27344-1.5078-0.82031-1.918-1.6445 0.82031 0.41016 1.7812 0.27344 2.7383 0-0.27344-0.68359-0.82031-1.2344-1.5078-1.7812 0.95703-0.13672 1.7812 0.13672 2.4648 0.68359-0.27344-0.82031-0.68359-1.3711-1.0977-2.0547 0.54688 0 0.82031 0.27344 1.2344 0.54688-0.95703-1.6445-1.5078-3.4258-1.5078-5.3438 0.68359 0.54687 1.3711 1.0977 1.918 1.6445-0.27344-1.0977-0.27344-2.3281 0-3.4258 0.41016 0.54687 0.82031 0.95703 1.3711 0.95703 0-0.13672-0.13672-0.27344-0.13672-0.41016-0.82031-0.54687-1.6445-1.2344-2.1914-2.0547h2.4648c-0.95703-0.54688-1.7812-1.5078-2.1914-2.4648 0.54688 0 3.5625-0.41016 4.1094-0.82031-3.9727-0.95703-14.246-1.3711-11.918-6.9844 6.0273-2.875 18.492-9.3164 18.492-9.3164s-13.152-1.3711-12.875-2.6016c0.27344-1.0977 1.918-3.8359 7.5352-4.2461 5.4805 0.41016 10-1.7812 12.328-2.3281 2.1914-0.54688 1.6445-2.0547 5.0703-2.875 3.4258-0.82031 8.4922-1.2344 8.4922-1.2344s8.4922-5.8906 9.7266-7.5352c1.0977-1.6445 3.2891-1.918 4.2461-1.5078 1.6445 0.54688 1.7812 2.3281 1.3711 4.3828 0.82031 0.95703 1.0977 3.4258 1.0977 3.4258h-0.27344c0.13672 0.13672 0.27344 0.27344 0.27344 0.41016v0.13672s0.27344 0.95703-0.82031 2.875c-0.68359-0.82031-3.4258 2.0547-4.9297 3.2891-0.82031 0.95703-0.54687 1.0977-0.27344 2.6016 0 0-2.875-1.3711-3.8359 2.4648-0.27344 2.1914 0.68359 3.5625 1.7812 5.3438-3.6992 1.5078-4.9297-1.5078-5.6172-2.6016-0.95703 2.1914-0.54688 4.793 0.27344 7.2617-0.95703-1.2344-2.6016-4.1094-1.6445-6.7109-0.41016 0.41016-0.82031 0.82031-1.0977 1.5078-0.13672-0.95703 0.13672-1.918 0.41016-3.0156-0.95703 1.7812-1.7812 3.6992-2.1914 5.8906-0.27344-0.54688-0.41016-1.0977-0.54688-1.7812 0 0-1.0977 3.0156-0.68359 5.3438 0.54688 2.1914 2.0547 4.9297 2.0547 4.9297-0.13672-1.5078-0.27344-3.1523-0.27344-4.6562 0.54688 1.918 1.2344 3.2891 1.918 4.6562-0.27344-2.4648-0.27344-4.6562 0.13672-6.7109 0.13672 2.6016 0.54688 4.9297 1.6445 6.9844 0-1.3711 0.13672-2.4648 0.68359-3.2891 0 2.1914 0.54688 3.8359 1.3711 5.207h0.13672c-0.13672-2.6016 0.13672-6.4375 1.3711-8.2188 0.41016 0.95703 1.2344 3.9727 0.82031 5.8906 0 0 3.4258-5.6172 2.6016-10.82-1.5078-2.6016-1.918-4.6562-0.13672-6.1641 0.82031 3.5625 3.1523 4.6562 5.7539 1.3711 2.7383 2.4648 2.6016 0.27344 2.875-0.41016 0.27344-1.2344 0.27344-2.875 0.27344-2.875 1.6445 2.875 3.5625 2.7383 3.0156 4.2461-0.41016 1.6445-0.68359 1.5078-2.3281 4.2461-1.6445 2.6016-5.6172 1.5078-5.4805 3.8359-3.2891 12.738-8.7656 10.41-1.7812 17.945-2.1914 6.1641 7.6719 11.508 7.6719 11.508-1.0977 0.41016-2.7383 0.41016-5.8906-0.54687 2.875 2.6016 4.793 3.4258 6.3008 3.4258-0.41016 0.27344-0.82031 0.68359-1.3711 0.95703 1.6445 0.41016 3.4258 0.82031 5.0703 1.0977-1.7812 0.68359-3.5625 1.3711-5.3438 2.0547 2.7383 0.54688 5.4805 1.0977 8.2188 1.7812-1.5078 0.41016-3.0156 0.95703-4.5195 1.3711 1.6445 0.82031 3.2891 1.6445 5.0703 2.4648-2.4648-0.13672-4.9297-0.41016-7.3984-0.68359 0 0 1.7812 1.5078 4.1094 1.7812 2.3281 0.13672 3.0156-0.54688 4.2461 0.27344 1.2344 0.82031 1.6445 1.5078 1.6445 1.5078s-2.6016-0.95703-4.6562-0.54688c-1.918 0.27344-4.9297 0.13672-6.7109-1.0977-1.6445-1.2344-3.9727-3.2891-3.9727-3.2891s2.875 3.9727 5.207 6.0273c2.4648 2.0547 3.0156 3.8359 3.0156 3.8359s-2.4648-2.0547-4.5195-2.875c-2.0547-0.82031-2.7383-1.6445-2.7383-1.6445s1.6445 3.0156 2.4648 4.6562c0.82031 1.7812 1.7812 4.3828 1.0977 8.6289-0.82031 4.1094-2.6016 6.0273-2.6016 6.0273s1.7812-5.8906-1.0977-8.7656c-2.7383-2.875-3.0156-3.2891-3.0156-3.2891h3.1523s0.27344-2.4648-1.918-3.9727c-2.0547-1.5078-2.6016-1.7812-2.6016-1.7812 0.68359-0.13672 1.2344-0.41016 1.7812-0.68359-3.2891-0.82031-6.7109-1.7812-10-2.6016 2.0547-0.68359 4.2461-1.2344 6.3008-1.7812 0 0-4.1094-1.7812-5.3438-4.5195-1.3711-2.7383-0.13672-6.3008-0.13672-6.3008-3.2891 4.3828-1.5078 6.7109-2.6016 11.645-3.8359-3.0156-1.3711-7.9453-5.0703-11.781 1.3711 9.4531-3.2891 7.5352 4.1094 16.301 0.13672-0.68359 0.27344-1.2344 0.41016-1.918 0 0 1.5078 3.1523 3.8359 5.0703 2.3281 1.918 4.793 0.68359 6.5742 3.4258 1.7812 2.7383 1.7812 2.7383 1.7812 2.7383v5.4805c0 0.54688-0.82031-4.3828-3.0156-6.1641-2.3281-1.918-6.3008-2.4648-6.3008-2.4648s4.1094 3.1523 4.793 4.5195c0.68359 1.3711 0.54688 2.7383 0.54688 2.7383s-1.5078-2.4648-5.7539-4.6562c-4.2461-2.0547-4.793-1.6445-6.5742-3.1523-1.6445-1.3711-3.8359-6.8477-3.8359-6.8477s-0.82031 3.6992 0.82031 6.4375c1.7812 2.6016 5.3438 3.0156 7.5352 4.5195 2.3281 1.3711 3.1523 3.0156 3.1523 3.0156s-2.7383-1.918-7.125-2.875c-4.5195-0.95703-6.5742-1.918-7.9453-4.1094-1.5078-2.1914-0.68359-6.1641-0.68359-6.1641-0.82031 2.0547-1.5078 4.2461-2.1914 6.3008-0.27344-2.7383-0.41016-5.4805-0.68359-8.2188l-3.1523 3.1523s-0.82031-3.8359 1.0977-7.5352c3.0156-5.7539 8.4922-12.328 7.5352-17.809-1.0977-6.5742-1.6445-8.2188 3.8359-14.109-7.2617 3.8359-6.7109 5.207-5.8906 9.7266 1.2344 6.9844-3.5625 8.2188-7.9453 21.508-0.68359 1.918-1.2344 5.3438-1.2344 5.3438s-0.68359-3.0156-0.68359-6.1641c0-3.2891 1.7812-5.6172 1.0977-8.2188-0.13672-0.54688-0.27344-1.0977-0.41016-1.5078-1.3711 4.9297-4.5195 9.8633-4.3828 14.656 0 2.4648 1.918 6.1641 1.918 6.1641s-3.9727-1.7812-4.6562-6.1641c-0.68359-4.5195 0.27344-6.4375 0.54688-9.1797v-1.7812l-0.82031-0.27344c-0.13672 1.6445-0.41016 3.6992-1.0977 5.6172-1.5078 3.5625-4.2461 7.125-6.0273 11.371-1.6445 4.3828-7.9453 10-7.2617 14.383 0.54688 4.3828 0.41016 6.8477 0.41016 6.8477s-3.0156-3.6992-2.7383-8.9023c0.27344-5.3438 2.3281-8.3555 3.9727-11.508 1.7812-3.1523 3.8359-9.3164 3.8359-9.3164s-4.1094 4.2461-6.1641 8.082c-2.1914 3.8359-2.6016 5.207-2.6016 5.207s1.0977-6.8477 2.875-10c2.7383-4.793 5.3438-6.5742 8.3555-11.645-1.7812-0.41016-4.6562 2.875-7.5352 4.6562zm55.891-59.59c-0.13672-0.68359-0.13672-1.918-0.27344-2.0547-0.27344-0.27344-0.95703-0.27344-0.95703 0.54687 0.13672 0.41016 0.27344 0.95703 0.27344 1.5078h0.95703zm-1.6445 0c-0.27344-0.27344-0.54688-0.41016-0.68359-0.54688l-0.27344 0.68359c0.27344-0.13672 0.54688-0.13672 0.95703-0.13672zm-21.234 11.781c0.27344-2.1914 1.918-4.5195 4.5195-5.0703 0.82031 0.27344 1.5078 0.54688 2.3281 0.82031-2.1914 2.875-4.2461 3.4258-6.8477 4.2461z" fill-rule="evenodd"/>
<text x="0.0" y="117.5" font-size="5.0" font-weight="bold" font-family="Arbeit Regular, Helvetica, Arial-Unicode, Arial, Sans-serif" fill="#000000">Created by kareemov</text><text x="0.0" y="122.5" font-size="5.0" font-weight="bold" font-family="Arbeit Regular, Helvetica, Arial-Unicode, Arial, Sans-serif" fill="#000000">from Noun Project</text></svg>