<svg xmlns="http://www.w3.org/2000/svg" xmlns:xlink="http://www.w3.org/1999/xlink" version="1.1" x="0px" y="0px" viewBox="0 0 100 125" style="enable-background:new 0 0 100 100;" xml:space="preserve"><path d="M43.8,66.9c-1.8-0.8-3.5-1.6-5.4-2.4c0.3,0.6,0.5,1.2,0.8,1.7c1.6,2.5,4,4,6.8,4.7c2,0.5,4,1.2,5.7,2.3  c2.9,1.9,4.9,4.5,5.6,7.9c0.8,4.3-1.2,8.4-5.2,10.4c-2.8,1.4-5.7,1.6-8.7,1.5c0.6-0.7,1.3-1.3,1.9-2c2.8-3.7,3-8.7,0.4-12.6  c-2.3-3.6-5.7-5.3-9.7-6.1c-2.6-0.5-5.1-0.5-7.6,0.5c0.9-0.9,1.7-1.7,2.5-2.6c1.8-2.2,2.5-4.7,1.9-7.4c-0.3-1.3-0.9-2.5-1.8-3.4  c-0.1,0-0.1,0-0.2,0c0,0.8,0.1,1.6,0,2.3c-0.3,2.8-1.6,5.2-3.5,7.2c-0.8,0.8-1.7,1.6-2.5,2.5c-3,3.4-4,7.3-2.8,11.7  c0,0.1,0,0.1,0,0.2c0,0,0,0.1,0,0.2c-1.2-1-2.1-2.2-3-3.5c-1.7-2.6-2.9-5.3-3.1-8.5c-0.4-6,2.5-10.8,7.9-13.4  c1.7-0.8,3.3-1.6,4.9-2.6c1.5-0.9,2.7-2.2,3.6-3.8c0.7-1.4,0.7-2.7-0.1-4.1c-0.1-0.2-0.3-0.3-0.4-0.6c-0.3,0.5-0.6,1-0.9,1.4  c-1.3,2.1-3.1,3.5-5.4,4.4c-1.5,0.6-3.1,1.2-4.5,1.9c-3.2,1.6-5.6,4.1-7.2,7.4c0,0-0.1,0.1-0.2,0.2c0-0.5,0-0.9,0-1.4  c0-4.1,0.9-7.9,3-11.4c2.6-4.4,6.5-6.9,11.4-8c2.3-0.5,4.5-1,6.6-1.9c5.3-2.4,8.4-6.5,9.3-12.3c0.2-1.7,0.3-3.4,0.5-5  c0.4-3.9,2.1-7.3,4.6-10.3c3.1-3.6,6.9-6,11.4-7.2c0.3-0.1,0.6-0.1,1-0.2C61,5,60.4,5.7,59.9,6.5c-2,3.2-2.5,6.8-1.8,10.5  c0.3,1.5,0.5,3,0.5,4.5c0.1,3.5-1.4,6.3-3.9,8.6c-0.8,0.7-1.7,1.3-2.6,1.9c-0.5,0.3-1.1,0.6-1.8,0.9c1.2-2.7,1.4-5.5,1.4-8.3  c0-2-0.1-4.1,0.5-6c0.3-1.1,0.8-2.2,1.2-3.2c-1.8,0.7-2.9,2.2-3.7,4c-0.7,1.7-0.8,3.6-0.6,5.4c0.2,1.9,0.3,3.9-0.2,5.8  c-0.6,2-1.7,3.8-3.1,5.3c-1.7,1.7-3.4,3.4-4.7,5.5c-2.5,4.1-3.5,8.5-3,13.3c0.4,4.6,2.3,8.5,5.4,11.8c0.1,0.1,0.2,0.2,0.3,0.3  C43.9,66.8,43.9,66.8,43.8,66.9z"/><path d="M60.5,87.9c0.3-1.3,0.7-2.6,0.9-3.9c0.5-3.9-0.8-7.2-3.3-10.2c-1.9-2.3-4.4-3.8-6.8-5.3  c-5-3.1-8.3-7.5-9.2-13.5c-0.9-6.7,1.3-12.3,6.4-16.6c3.6-3,7.8-4.5,12.5-4.8c0,0,0.1,0,0.2-0.1c-0.4-1.5-1.4-2.3-3.1-2.4  c3.8-3.5,5.1-7.7,4.1-12.7c0.3,0.1,0.6,0.1,0.9,0.2c4.5,1.1,8.2,3.4,10.6,7.3c0.8,1.3,1.4,2.7,1.9,4.1c1,2.6,2.6,4.5,5.1,5.7  c3.1,1.5,6.3,3,9.4,4.5c1.8,0.9,2.2,2.2,1.2,3.9c-0.6,1-1.4,1.6-2.4,2.2c-0.2,0.1-0.5,0.3-0.6,0.6c-1.1,2.3-3,3.5-5.4,4  c-2.7,0.6-5.3,0-7.7-1.3c-1.2-0.6-2.3-1.3-3.5-1.7c-3.9-1.3-7.4-0.7-10.6,2c-0.2,0.2-0.4,0.4-0.6,0.7c0-1.5,1.1-3.5,2.6-4.5  c3.1-2.2,6.4-2.2,9.8-0.8c1.3,0.5,2.5,1.3,3.7,1.9c2.1,1.1,4.3,1.5,6.6,0.8c1.3-0.4,2.2-1.1,2.7-2.4c0.2-0.5,0.1-0.9-0.2-1.4  c-0.6-0.9-1.1-1.9-1.6-2.9c-0.1-0.2-0.3-0.5-0.5-0.5c-4.2-1.6-8.4-3-12.8-3.4c-1.4-0.1-2.8-0.1-4.3-0.2c-1.6-0.1-3.2-0.3-4.8-0.2  c-3,0.1-6.1,2.6-7,5.4c0,0.1,0,0.1-0.1,0.4c2.4-2.1,5.2-3.2,8.3-3c1.3,0,2.5,0.2,3.7,0.6c-1.1,0.4-2.3,0.7-3.4,1.2  c-7,3.4-8.4,11.8-3.3,17.5c0.9,1,1.8,1.8,2.7,2.7c0.2,0.2,0.4,0.3,0.6,0.3c3.5,0.3,5.9,2.3,7.3,5.4c1.5,3.5,1.2,7-0.4,10.4  c0,0.1-0.1,0.1-0.1,0.2c0,0,0,0-0.1,0c-0.1-1.8-0.6-3.4-1.8-4.9C68.3,79.7,65.9,84.6,60.5,87.9z M52.7,47.5c-2,1.1-3.8,3.4-4.4,5.9  c-1.1,4.5,0.1,8.5,3.5,11.7c2.1,2,4.4,3.7,6.7,5.5c-0.5-1-0.8-2.1-1.4-3.1c-1-1.6-2-3.1-3.1-4.6c-2.9-4.1-3.5-8.5-2.2-13.2  C52,49,52.4,48.3,52.7,47.5z M69.9,34.1c-0.6-0.8-1.2-1.5-1.7-2.3c-1.4-2-3.4-2.1-5.6-2.1C63.8,33.2,66.9,34.9,69.9,34.1z"/><path d="M36.8,82c-0.7,0-1.3,0-1.9,0c-1.2-0.1-2.3-0.9-2.5-2.1c-0.2-1.1,0.4-2.3,1.6-2.8c2.1-0.9,4.1-0.4,5.8,0.7  c2.6,1.7,3.7,4.2,3.5,7.2c-0.2,3.2-1.8,5.5-4.7,6.8c-0.5,0.2-1.1,0.1-1.6,0.1c-3.4-0.6-6.4-1.9-8.7-4.5c-1.9-2.1-3-4.5-2.7-7.4  c0.4-3,2.5-5.3,5.4-5.8c0.3,0,0.5-0.1,0.9-0.2c-1.2,0.8-1.9,1.8-2.3,2.9c-0.9,2.6,0.1,5.4,2.4,6.4c1.7,0.8,3.6,0.4,4.5-1  C36.6,82.3,36.7,82.2,36.8,82z"/><path d="M42,19.4c-0.2,3.6-0.4,6.9-2.2,10c-1.7,3.1-4.2,5.3-7.5,6.6c-3,1.2-6.2,1.6-9.4,2  C29.1,31.7,34.6,24.7,42,19.4z"/><path d="M72.3,6.1c-3.3,3.9-4.1,8.2-2.8,13.1c-0.8-0.6-1.5-1.1-2.2-1.6c-1.6-1.1-3.4-1.9-5.3-2.2  c-0.3-0.1-0.4-0.2-0.5-0.5c-0.1-0.8,0-1.5,0.4-2.2C64.2,9,68.5,6.8,72.3,6.1z"/><path d="M72.7,51.4c-2.6,0-4.8,0.8-6,3.2c-1.2,2.5-0.2,4.6,1.5,6.6c-0.5-0.2-0.9-0.3-1.4-0.5  c-1.4-0.6-2.8-1.4-3.8-2.6c-2-2.4-1.6-5.4,1-7.1c2.3-1.5,4.8-1.5,7.3-0.5c0.5,0.2,1,0.5,1.5,0.7C72.8,51.3,72.7,51.4,72.7,51.4z"/><text x="0" y="115" fill="#000000" font-size="5px" font-weight="bold" font-family="'Helvetica Neue', Helvetica, Arial-Unicode, Arial, Sans-serif">Created by Dimitri Lupo</text><text x="0" y="120" fill="#000000" font-size="5px" font-weight="bold" font-family="'Helvetica Neue', Helvetica, Arial-Unicode, Arial, Sans-serif">from the Noun Project</text></svg>